<svg width="100%" height="100%" viewBox="0 0 300 200" preserveAspectRatio="none" xmlns="http://www.w3.org/2000/svg">
  <!-- Background grid lines -->
  <line x1="0" y1="40" x2="300" y2="40" stroke="#e6f2ff" stroke-width="1" />
  <line x1="0" y1="80" x2="300" y2="80" stroke="#e6f2ff" stroke-width="1" />
  <line x1="0" y1="120" x2="300" y2="120" stroke="#e6f2ff" stroke-width="1" />
  <line x1="0" y1="160" x2="300" y2="160" stroke="#e6f2ff" stroke-width="1" />
  
  <!-- X-axis labels -->
  <text x="50" y="190" text-anchor="middle" font-size="10" fill="#0c4a6e">Vitamin D</text>
  <text x="120" y="190" text-anchor="middle" font-size="10" fill="#0c4a6e">Calcium</text>
  <text x="190" y="190" text-anchor="middle" font-size="10" fill="#0c4a6e">Magnesium</text>
  <text x="260" y="190" text-anchor="middle" font-size="10" fill="#0c4a6e">Vitamin K</text>
  
  <!-- Y-axis labels -->
  <text x="20" y="40" text-anchor="end" font-size="10" fill="#0c4a6e">100%</text>
  <text x="20" y="80" text-anchor="end" font-size="10" fill="#0c4a6e">80%</text>
  <text x="20" y="120" text-anchor="end" font-size="10" fill="#0c4a6e">60%</text>
  <text x="20" y="160" text-anchor="end" font-size="10" fill="#0c4a6e">40%</text>
  <text x="20" y="200" text-anchor="end" font-size="10" fill="#0c4a6e">20%</text>
  
  <!-- Bars -->
  <rect x="30" y="60" width="40" height="100" rx="4" fill="#4299e1" />
  <rect x="100" y="40" width="40" height="120" rx="4" fill="#4299e1" />
  <rect x="170" y="80" width="40" height="80" rx="4" fill="#4299e1" />
  <rect x="240" y="60" width="40" height="100" rx="4" fill="#4299e1" />
  
  <!-- Target lines -->
  <line x1="30" y1="20" x2="70" y2="20" stroke="#0c4a6e" stroke-width="2" stroke-dasharray="4" />
  <line x1="100" y1="20" x2="140" y2="20" stroke="#0c4a6e" stroke-width="2" stroke-dasharray="4" />
  <line x1="170" y1="20" x2="210" y2="20" stroke="#0c4a6e" stroke-width="2" stroke-dasharray="4" />
  <line x1="240" y1="20" x2="280" y2="20" stroke="#0c4a6e" stroke-width="2" stroke-dasharray="4" />
  
  <!-- Percentage labels -->
  <text x="50" y="55" text-anchor="middle" font-size="10" fill="#ffffff" font-weight="bold">75%</text>
  <text x="120" y="35" text-anchor="middle" font-size="10" fill="#ffffff" font-weight="bold">85%</text>
  <text x="190" y="75" text-anchor="middle" font-size="10" fill="#ffffff" font-weight="bold">60%</text>
  <text x="260" y="55" text-anchor="middle" font-size="10" fill="#ffffff" font-weight="bold">70%</text>
</svg>

